PathFileType	4	(X/Y/Z)	./resultDataOpenSim/trcMotMarkerGrf/sub10/qtm-14-01.trc
DataRate	CameraRate	NumFrames	NumMarkers	Units	OrigDataRate	OrigDataStartFrame	OrigNumFrames
250.000000	250.000000	7	24	m	250.000000	228	454
Frame#	Time	L.Toe.Tip			R.Toe.Tip			L.Ankle.Lat			R.Ankle.Lat			L.Ankle.Med			R.Ankle.Med			L.Heel			R.Heel			L.Knee.Lat			R.Knee.Lat			L.Knee.Med			R.Knee.Med			L.Thigh.Upper			R.Thigh.Upper			L.ASIS			R.ASIS			V.Sacral			L.Acromium			R.Acromium			C7			L.Elbow			R.Elbow			L.Wrist.Lat			R.Wrist.Lat
		X1	Y1	Z1	X2	Y2	Z2	X3	Y3	Z3	X4	Y4	Z4	X5	Y5	Z5	X6	Y6	Z6	X7	Y7	Z7	X8	Y8	Z8	X9	Y9	Z9	X10	Y10	Z10	X11	Y11	Z11	X12	Y12	Z12	X13	Y13	Z13	X14	Y14	Z14	X15	Y15	Z15	X16	Y16	Z16	X17	Y17	Z17	X18	Y18	Z18	X19	Y19	Z19	X20	Y20	Z20	X21	Y21	Z21	X22	Y22	Z22	X23	Y23	Z23	X24	Y24	Z24

228	0.908	0.049684493	-0.032961444	-0.096752761	0.59769049	0.10342779	0.10365579	-0.077712917	0.0074852602	-0.12693648	0.45691398	0.11433039	0.13162451	-0.066655322	0.033051651	-0.042788472	0.48125407	0.13362599	0.045923971	-0.14877258	-0.0096653532	-0.082639853	0.41269291	0.078771028	0.085115252	0.07248356	0.36253232	-0.16877747	0.45304476	0.51346922	0.10133686	0.069115995	0.34838316	-0.048664307	0.46563294	0.51470133	-0.026393092	0.15123084	0.75276646	-0.24807816	0.17241848	0.79608009	0.13693391	0.2139445	0.85964803	-0.18587886	0.22987984	0.88294668	0.059232393	0.026055285	0.88909733	-0.052743257	0.25897151	1.3315543	-0.22842468	0.16847598	1.3748223	0.049375652	0.14596747	1.3762146	-0.1104223	0.11963422	1.0359757	-0.32168114	-0.049015039	1.1996724	0.24057798	0.19773817	0.83508802	-0.4586083	-0.065393107	1.2475925	0.48878058
229	0.912	0.04977917	-0.032913031	-0.096738276	0.61809996	0.10250479	0.098921029	-0.077245545	0.0088323894	-0.12673308	0.47759871	0.10979653	0.12918634	-0.065677645	0.034343912	-0.042637685	0.50019645	0.13039914	0.043510181	-0.14825755	-0.0077355109	-0.082122058	0.43354538	0.073683133	0.082911918	0.074082483	0.36342589	-0.16884431	0.4595045	0.50958046	0.10111894	0.070856472	0.3491573	-0.04867783	0.47214912	0.5106361	-0.02645337	0.15697365	0.75311751	-0.24826796	0.18198419	0.79608403	0.13670778	0.22025982	0.86005432	-0.18668087	0.23861892	0.88340335	0.058885462	0.03364719	0.88892192	-0.051843061	0.2649694	1.332493	-0.2284086	0.1745054	1.3755463	0.048720273	0.15245876	1.3765933	-0.11041988	0.1267001	1.0365643	-0.32174668	-0.044283994	1.2029332	0.24019711	0.20434323	0.83645101	-0.45995039	-0.065139482	1.2543736	0.48722708
230	0.916	0.049875302	-0.03284696	-0.096740341	0.63793692	0.10195702	0.094179293	-0.07681907	0.010265811	-0.12650817	0.49770623	0.10568174	0.1266354	-0.064663569	0.03567576	-0.042534156	0.51869504	0.12746764	0.041060872	-0.14769201	-0.0057245401	-0.081641067	0.45397833	0.068991976	0.080591654	0.075655837	0.36440936	-0.16892594	0.46567451	0.50549551	0.10086947	0.072683987	0.35003929	-0.048698627	0.47868679	0.50637337	-0.026581178	0.16265641	0.75342976	-0.24848051	0.19144612	0.79596158	0.13638841	0.22667993	0.86042245	-0.1874591	0.24745765	0.88387039	0.058523003	0.041573738	0.88845416	-0.050658587	0.27092704	1.3334054	-0.22838621	0.18053364	1.3762192	0.048102111	0.15895952	1.3769137	-0.11039377	0.133734	1.0371099	-0.32182492	-0.039555246	1.2061098	0.23981687	0.21088166	0.83778814	-0.46128057	-0.064738036	1.2611095	0.48553413
231	0.92	0.049960015	-0.032760795	-0.09675287	0.65719563	0.10177728	0.089494387	-0.076485776	0.011796071	-0.12620294	0.51722795	0.10194649	0.12394745	-0.063658446	0.037032311	-0.042485456	0.53672883	0.12483378	0.038609013	-0.14709529	-0.0036305678	-0.081218508	0.47395117	0.06467721	0.078151301	0.077204546	0.36547515	-0.16902435	0.47161107	0.50124411	0.10060408	0.074609004	0.35102931	-0.048734323	0.48519014	0.50193345	-0.026758945	0.16822291	0.75367325	-0.24869339	0.20093784	0.79582232	0.13606801	0.23313454	0.86072562	-0.18821657	0.25637849	0.88433481	0.058109593	0.049865344	0.88767466	-0.048707343	0.27685764	1.3342856	-0.22835371	0.18655808	1.3768261	0.047520653	0.16549655	1.3771609	-0.11032001	0.14072772	1.0376082	-0.32190269	-0.034854807	1.2091973	0.23937179	0.21735954	0.83910144	-0.46260612	-0.064233469	1.2677838	0.48371714
232	0.924	0.050030325	-0.032666779	-0.096751869	0.67583809	0.10197736	0.084913618	-0.07627082	0.013418201	-0.12577275	0.53615129	0.098580239	0.12113739	-0.062638938	0.038414822	-0.042483231	0.55426478	0.12250263	0.036151511	-0.14647329	-0.0014488535	-0.080848858	0.49343513	0.060718319	0.075544943	0.078745752	0.36661259	-0.16914318	0.47757216	0.49673153	0.10034447	0.076643495	0.35212315	-0.048785642	0.49162262	0.49734609	-0.026954852	0.17366019	0.75382344	-0.24889871	0.21050949	0.79572661	0.13577319	0.23958066	0.86094744	-0.18896623	0.26538507	0.88478881	0.05762652	0.058320716	0.88677399	-0.046232733	0.28276995	1.3351284	-0.22830011	0.19258076	1.3773523	0.046983838	0.17205321	1.3773398	-0.11018208	0.14766102	1.0380562	-0.32193329	-0.030194797	1.2121682	0.23877074	0.22378872	0.84039544	-0.46392846	-0.06365184	1.2743558	0.48178341
233	0.928	0.050097591	-0.03258374	-0.096731495	0.69380462	0.10259017	0.080447398	-0.076093373	0.015105578	-0.12527308	0.55441296	0.095633576	0.11829414	-0.061573634	0.039837566	-0.042505156	0.57127019	0.12049475	0.033632642	-0.14582407	0.00081638132	-0.080530753	0.51239843	0.057105563	0.072722974	0.080299681	0.36780644	-0.16927855	0.48381412	0.4918812	0.10011732	0.078795633	0.35330008	-0.048860148	0.49801293	0.4926565	-0.027164778	0.17892187	0.75384305	-0.2490467	0.2201663	0.79569708	0.13549784	0.24603374	0.86107849	-0.18971813	0.27448124	0.88522528	0.057061323	0.066677008	0.88599716	-0.043980106	0.28866402	1.3359321	-0.22821659	0.19860242	1.3777954	0.046499318	0.17857855	1.3774595	-0.10997582	0.15449448	1.0384657	-0.32182704	-0.025582615	1.2149991	0.23801115	0.23018669	0.84167366	-0.46524093	-0.062970624	1.2807912	0.47973608
234	0.932	0.050180505	-0.032517779	-0.096714548	0.71104013	0.10362858	0.076090651	-0.075799995	0.016821525	-0.12484122	0.57190784	0.09316136	0.11548211	-0.060432165	0.041317427	-0.042530027	0.58770793	0.11884403	0.030987739	-0.1451417	0.0031508264	-0.080255374	0.53079213	0.053839211	0.069671879	0.081882033	0.36904199	-0.16942517	0.4902876	0.48682923	0.099941202	0.081070438	0.3545268	-0.048967936	0.50441385	0.48791492	-0.027414509	0.18384962	0.75367355	-0.24900013	0.22990052	0.79573006	0.13522946	0.25252813	0.86110875	-0.19047718	0.2836647	0.8856351	0.056399007	0.07483964	0.88541492	-0.042351685	0.29453389	1.3366959	-0.22810284	0.20460729	1.378166	0.046059666	0.185026	1.3775196	-0.10969077	0.16118918	1.038859	-0.32150653	-0.02101729	1.2177042	0.237201	0.23657082	0.84293657	-0.46653156	-0.062157881	1.2870756	0.47757809
